<svg width="34" height="16" viewBox="0 0 34 16" fill="none" xmlns="http://www.w3.org/2000/svg">
<path fill-rule="evenodd" clip-rule="evenodd" d="M17.0002 9.87169C17.1185 10.0158 21.5471 15.3754 25.7328 15.3754C29.9756 15.3754 32.3776 11.1034 32.3776 11.1034C34.0309 8.13972 32.5649 5.23806 32.5649 5.23806C32.5649 5.23806 30.4436 0.624756 25.7328 0.624756C21.0891 0.624756 17.1122 6.03799 17.0002 6.19172C16.8882 6.03799 12.9113 0.624756 8.26754 0.624756C3.5569 0.624756 1.43537 5.23806 1.43537 5.23806C1.43537 5.23806 -0.0306535 8.13972 1.62264 11.1034C1.62264 11.1034 4.0248 15.3754 8.26754 15.3754C12.4532 15.3754 16.8818 10.0158 17.0002 9.87169ZM8.4456 3.20079C5.54394 3.20079 4.30894 5.56212 4.30894 5.56212C4.30894 5.56212 2.9816 7.67679 4.30894 10.3935C5.6366 13.1101 8.3996 12.8631 8.3996 12.8631C8.3996 12.8631 9.90287 13.0791 12.3102 11.0068C13.1444 10.2887 14.0872 9.29576 15.1136 7.92379C15.1136 7.92379 11.3476 3.20079 8.4456 3.20079ZM25.7203 3.20079C28.622 3.20079 29.857 5.56212 29.857 5.56212C29.857 5.56212 31.1843 7.67679 29.857 10.3935C28.5293 13.1101 25.7663 12.8631 25.7663 12.8631C25.7663 12.8631 24.2631 13.0791 21.8558 11.0068C21.0215 10.2887 20.0788 9.29576 19.0523 7.92379C19.0523 7.92379 22.8183 3.20079 25.7203 3.20079Z" fill="url(#paint0_linear_894_638)"/>
<defs>
<linearGradient id="paint0_linear_894_638" x1="15.2109" y1="15.6248" x2="17.7109" y2="0.624756" gradientUnits="userSpaceOnUse">
<stop stop-color="#FB923C"/>
<stop offset="0.496353" stop-color="#EF4444"/>
<stop offset="1" stop-color="#701A75"/>
</linearGradient>
</defs>
</svg>
