<svg width="414" height="414" viewBox="0 0 414 414" fill="none" xmlns="http://www.w3.org/2000/svg">
<path d="M207 207V1" stroke="#C084FC"/>
<path d="M207 207L402.918 143.343" stroke="#C084FC"/>
<path d="M207 207L328.084 373.657" stroke="#C084FC"/>
<path d="M207 207L85.916 373.657" stroke="#C084FC"/>
<path d="M207 207L11.0825 143.343" stroke="#C084FC"/>
<path d="M207 413C320.771 413 413 320.771 413 207C413 93.2293 320.771 1 207 1C93.2293 1 1 93.2293 1 207C1 320.771 93.2293 413 207 413Z" stroke="#C084FC"/>
<path d="M207 371.8C298.017 371.8 371.8 298.017 371.8 207C371.8 115.983 298.017 42.2 207 42.2C115.984 42.2 42.2002 115.983 42.2002 207C42.2002 298.017 115.984 371.8 207 371.8Z" stroke="#C084FC"/>
<path d="M207 330.6C275.262 330.6 330.6 275.262 330.6 207C330.6 138.738 275.262 83.4 207 83.4C138.738 83.4 83.3999 138.738 83.3999 207C83.3999 275.262 138.738 330.6 207 330.6Z" stroke="#C084FC"/>
<path d="M207 289.4C252.508 289.4 289.4 252.508 289.4 207C289.4 161.492 252.508 124.6 207 124.6C161.492 124.6 124.6 161.492 124.6 207C124.6 252.508 161.492 289.4 207 289.4Z" stroke="#C084FC"/>
<path d="M207 248.2C229.754 248.2 248.2 229.754 248.2 207C248.2 184.246 229.754 165.8 207 165.8C184.246 165.8 165.8 184.246 165.8 207C165.8 229.754 184.246 248.2 207 248.2Z" stroke="#C084FC"/>
<g style="mix-blend-mode:multiply">
<path d="M206.854 112.674L377.075 152.789L279.116 306.259L131.323 311.161L71.5864 163.001L206.854 112.674Z" fill="#D8B4FE"/>
<path d="M206.854 112.674L377.075 152.789L279.116 306.259L131.323 311.161L71.5864 163.001L206.854 112.674Z" stroke="#C084FC" stroke-width="2"/>
</g>
<g style="mix-blend-mode:multiply">
<path d="M207 54.0146L330.889 166.746L259.529 279.3L182.071 241.312L48.5371 155.512L207 54.0146Z" fill="#D8B4FE"/>
<path d="M207 54.0146L330.889 166.746L259.529 279.3L182.071 241.312L48.5371 155.512L207 54.0146Z" stroke="#9333EA" stroke-width="2"/>
</g>
</svg>
