<svg width="25" height="24" viewBox="0 0 25 24" fill="none" xmlns="http://www.w3.org/2000/svg">
<path d="M12.5711 13.314L17.5211 8.364C17.6134 8.26849 17.7237 8.19231 17.8457 8.1399C17.9677 8.08749 18.099 8.05991 18.2317 8.05875C18.3645 8.0576 18.4962 8.0829 18.6191 8.13318C18.742 8.18346 18.8536 8.25772 18.9475 8.35161C19.0414 8.4455 19.1157 8.55715 19.166 8.68005C19.2162 8.80295 19.2415 8.93463 19.2404 9.06741C19.2392 9.20018 19.2117 9.3314 19.1592 9.45341C19.1068 9.57541 19.0307 9.68576 18.9351 9.778L13.2781 15.435C13.0906 15.6225 12.8363 15.7278 12.5711 15.7278C12.306 15.7278 12.0517 15.6225 11.8641 15.435L6.20714 9.778C6.11163 9.68576 6.03545 9.57541 5.98304 9.45341C5.93063 9.3314 5.90305 9.20018 5.90189 9.06741C5.90074 8.93463 5.92604 8.80295 5.97632 8.68005C6.0266 8.55715 6.10086 8.4455 6.19475 8.35161C6.28864 8.25772 6.40029 8.18346 6.52319 8.13318C6.64609 8.0829 6.77777 8.0576 6.91054 8.05875C7.04332 8.05991 7.17454 8.08749 7.29655 8.1399C7.41855 8.19231 7.5289 8.26849 7.62114 8.364L12.5711 13.314Z" fill="#0F172A"/>
</svg>
