<svg width="132" height="24" viewBox="0 0 132 24" fill="none" xmlns="http://www.w3.org/2000/svg">
<path d="M17.0449 19.8633L0.98548 8.78553C-0.64195 7.66298 -0.0887313 5.32566 1.94063 4.77602L19.009 0.14348C19.3705 0.0130174 19.758 -0.0293334 20.1392 0.0199461C20.5204 0.0692256 20.8844 0.208712 21.2009 0.426831C21.5173 0.644949 21.7773 0.935407 21.959 1.2741C22.1407 1.61279 22.2391 1.98994 22.2459 2.37426L21.2344 18.0837C21.1144 19.9484 18.6724 20.9859 17.0449 19.8633Z" fill="#94A3B8"/>
<path d="M11.9513 22.5978L2.49013 4.0954C2.27385 3.67212 2.17868 3.19733 2.21511 2.7234C2.25153 2.24946 2.41814 1.79479 2.69655 1.40954C2.97497 1.02428 3.35437 0.723394 3.79293 0.540062C4.23149 0.35673 4.71215 0.298078 5.18192 0.370578L22.7158 3.07669C23.1194 3.139 23.5025 3.29624 23.8337 3.53547C24.1647 3.77472 24.4342 4.08912 24.6202 4.45284C24.806 4.81656 24.9029 5.2192 24.9029 5.62767C24.9028 6.03613 24.8057 6.43876 24.6198 6.80241L16.5426 22.5987C16.3257 23.0207 15.9967 23.3749 15.5916 23.622C15.1865 23.8693 14.7212 24 14.2467 23.9999C13.7721 23.9998 13.3068 23.8689 12.9019 23.6216C12.4969 23.3742 12.168 23.0199 11.9513 22.5978Z" fill="#94A3B8"/>
<path d="M17.7183 6.5452L14.3517 6L10.2183 7.17758L11.8681 10.5642L15.7315 13.3614C15.8168 13.4225 15.9105 13.4692 16.0095 13.5L17.4769 10.4889L17.7183 6.5452Z" fill="white"/>
<path d="M38.7075 14.6514C38.7075 14.4229 38.6724 14.2178 38.602 14.0361C38.5376 13.8486 38.4145 13.6787 38.2329 13.5264C38.0513 13.3682 37.7964 13.2129 37.4683 13.0605C37.1401 12.9082 36.7153 12.75 36.1938 12.5859C35.6138 12.3984 35.063 12.1875 34.5415 11.9531C34.0259 11.7188 33.5688 11.4463 33.1704 11.1357C32.7778 10.8193 32.4673 10.4531 32.2388 10.0371C32.0161 9.62109 31.9048 9.1377 31.9048 8.58692C31.9048 8.05371 32.022 7.57031 32.2563 7.13672C32.4907 6.69727 32.8188 6.32227 33.2407 6.01172C33.6626 5.69531 34.1606 5.45215 34.7349 5.28223C35.3149 5.11231 35.9507 5.02735 36.6421 5.02735C37.5854 5.02735 38.4087 5.19727 39.1118 5.53711C39.8149 5.87695 40.3599 6.34277 40.7466 6.93457C41.1392 7.52637 41.3354 8.20313 41.3354 8.96484H38.7163C38.7163 8.58984 38.6372 8.26172 38.479 7.98047C38.3267 7.69336 38.0923 7.46777 37.7759 7.30371C37.4653 7.13965 37.0728 7.05762 36.5981 7.05762C36.1411 7.05762 35.7603 7.12793 35.4556 7.26856C35.1509 7.40332 34.9224 7.58789 34.77 7.82227C34.6177 8.05078 34.5415 8.30859 34.5415 8.5957C34.5415 8.8125 34.5942 9.00879 34.6997 9.18457C34.811 9.36035 34.9751 9.52441 35.1919 9.67676C35.4087 9.8291 35.6753 9.97266 35.9917 10.1074C36.3081 10.2422 36.6743 10.374 37.0903 10.5029C37.7876 10.7139 38.3999 10.9512 38.9272 11.2148C39.4604 11.4785 39.9058 11.7744 40.2632 12.1025C40.6206 12.4307 40.8901 12.8027 41.0718 13.2188C41.2534 13.6348 41.3442 14.1064 41.3442 14.6338C41.3442 15.1904 41.2358 15.6885 41.019 16.1279C40.8022 16.5674 40.4888 16.9395 40.0786 17.2441C39.6685 17.5488 39.1792 17.7803 38.6108 17.9385C38.0425 18.0967 37.4067 18.1758 36.7036 18.1758C36.0708 18.1758 35.4468 18.0937 34.8315 17.9297C34.2163 17.7598 33.6567 17.5049 33.1528 17.165C32.6548 16.8252 32.2563 16.3916 31.9575 15.8643C31.6587 15.3369 31.5093 14.7129 31.5093 13.9922H34.1548C34.1548 14.3906 34.2163 14.7275 34.3394 15.0029C34.4624 15.2783 34.6353 15.501 34.8579 15.6709C35.0864 15.8408 35.356 15.9639 35.6665 16.04C35.9829 16.1162 36.3286 16.1543 36.7036 16.1543C37.1606 16.1543 37.5356 16.0898 37.8286 15.9609C38.1274 15.832 38.3472 15.6533 38.4878 15.4248C38.6343 15.1963 38.7075 14.9385 38.7075 14.6514ZM45.5103 10.459V18H42.9702V8.49024H45.352L45.5103 10.459ZM45.1587 12.9111H44.4556C44.4556 12.249 44.5347 11.6396 44.6929 11.083C44.8569 10.5205 45.0942 10.0342 45.4048 9.62402C45.7212 9.20801 46.1108 8.88574 46.5737 8.65723C47.0366 8.42871 47.5728 8.31445 48.1821 8.31445C48.604 8.31445 48.9907 8.37891 49.3423 8.50781C49.6938 8.63086 49.9956 8.82715 50.2476 9.09668C50.5054 9.36035 50.7046 9.70606 50.8452 10.1338C50.9858 10.5557 51.0562 11.0625 51.0562 11.6543V18H48.5249V11.9355C48.5249 11.502 48.4663 11.168 48.3491 10.9336C48.2319 10.6992 48.0649 10.5352 47.8481 10.4414C47.6372 10.3477 47.3823 10.3008 47.0835 10.3008C46.7554 10.3008 46.4683 10.3682 46.2222 10.5029C45.9819 10.6377 45.7827 10.8252 45.6245 11.0654C45.4663 11.2998 45.3491 11.5752 45.2729 11.8916C45.1968 12.208 45.1587 12.5479 45.1587 12.9111ZM50.8188 12.6211L49.9136 12.7354C49.9136 12.1143 49.9897 11.5371 50.1421 11.0039C50.3003 10.4707 50.5317 10.002 50.8364 9.59766C51.147 9.19336 51.5308 8.87988 51.9878 8.65723C52.4448 8.42871 52.9722 8.31445 53.5698 8.31445C54.0269 8.31445 54.4429 8.38184 54.8179 8.5166C55.1929 8.64551 55.5122 8.85352 55.7759 9.14063C56.0454 9.42188 56.2505 9.79102 56.3911 10.248C56.5376 10.7051 56.6108 11.2646 56.6108 11.9268V18H54.0708V11.9268C54.0708 11.4873 54.0122 11.1533 53.895 10.9248C53.7837 10.6904 53.6196 10.5293 53.4028 10.4414C53.1919 10.3477 52.9399 10.3008 52.647 10.3008C52.3423 10.3008 52.0757 10.3623 51.8472 10.4854C51.6187 10.6025 51.4282 10.7666 51.2759 10.9775C51.1235 11.1885 51.0093 11.4346 50.9331 11.7158C50.8569 11.9912 50.8188 12.293 50.8188 12.6211ZM63.7036 15.8555V11.6191C63.7036 11.3145 63.6538 11.0537 63.5542 10.8369C63.4546 10.6143 63.2993 10.4414 63.0884 10.3184C62.8833 10.1953 62.6167 10.1338 62.2886 10.1338C62.0073 10.1338 61.7642 10.1836 61.5591 10.2832C61.354 10.377 61.1958 10.5146 61.0845 10.6963C60.9731 10.8721 60.9175 11.0801 60.9175 11.3203H58.3862C58.3862 10.916 58.48 10.5322 58.6675 10.1689C58.855 9.80566 59.1274 9.48633 59.4849 9.21094C59.8423 8.92969 60.2671 8.70996 60.7593 8.55176C61.2573 8.39356 61.814 8.31445 62.4292 8.31445C63.1675 8.31445 63.8237 8.4375 64.3979 8.68359C64.9722 8.92969 65.4233 9.29883 65.7515 9.79102C66.0854 10.2832 66.2524 10.8984 66.2524 11.6367V15.7061C66.2524 16.2275 66.2847 16.6553 66.3491 16.9893C66.4136 17.3174 66.5073 17.6045 66.6304 17.8506V18H64.0727C63.9497 17.7422 63.856 17.4199 63.7915 17.0332C63.7329 16.6406 63.7036 16.248 63.7036 15.8555ZM64.0376 12.208L64.0552 13.6406H62.6401C62.3061 13.6406 62.0161 13.6787 61.77 13.7549C61.5239 13.8311 61.3218 13.9395 61.1636 14.0801C61.0054 14.2148 60.8882 14.373 60.812 14.5547C60.7417 14.7363 60.7065 14.9355 60.7065 15.1523C60.7065 15.3691 60.7563 15.5654 60.856 15.7412C60.9556 15.9111 61.0991 16.0459 61.2866 16.1455C61.4741 16.2393 61.6938 16.2861 61.9458 16.2861C62.3267 16.2861 62.6577 16.21 62.939 16.0576C63.2202 15.9053 63.437 15.7178 63.5894 15.4951C63.7476 15.2725 63.8296 15.0615 63.8354 14.8623L64.5034 15.9346C64.4097 16.1748 64.2808 16.4238 64.1167 16.6816C63.9585 16.9395 63.7563 17.1826 63.5102 17.4111C63.2642 17.6338 62.9683 17.8184 62.6226 17.9648C62.2769 18.1055 61.8667 18.1758 61.3921 18.1758C60.7886 18.1758 60.2407 18.0557 59.7485 17.8154C59.2622 17.5693 58.8755 17.2324 58.5884 16.8047C58.3071 16.3711 58.1665 15.8789 58.1665 15.3281C58.1665 14.8301 58.2603 14.3877 58.4478 14.001C58.6352 13.6143 58.9106 13.2891 59.2739 13.0254C59.6431 12.7559 60.103 12.5537 60.6538 12.4189C61.2046 12.2783 61.8433 12.208 62.5698 12.208H64.0376ZM70.7349 10.5645V18H68.2036V8.49024H70.5854L70.7349 10.5645ZM73.6001 8.42871L73.5561 10.7754C73.4331 10.7578 73.2837 10.7432 73.1079 10.7314C72.938 10.7139 72.7827 10.7051 72.6421 10.7051C72.2847 10.7051 71.9741 10.752 71.7104 10.8457C71.4526 10.9336 71.2358 11.0654 71.0601 11.2412C70.8901 11.417 70.7612 11.6309 70.6733 11.8828C70.5913 12.1348 70.5444 12.4219 70.5327 12.7441L70.0229 12.5859C70.0229 11.9707 70.0845 11.4053 70.2075 10.8896C70.3306 10.3682 70.5093 9.91406 70.7436 9.52734C70.9839 9.14063 71.2769 8.8418 71.6226 8.63086C71.9683 8.41992 72.3638 8.31445 72.8091 8.31445C72.9497 8.31445 73.0933 8.32617 73.2397 8.34961C73.3862 8.36719 73.5063 8.39356 73.6001 8.42871ZM79.8931 8.49024V10.2832H74.356V8.49024H79.8931ZM75.727 6.14356H78.2583V15.1348C78.2583 15.4102 78.2935 15.6211 78.3638 15.7676C78.4399 15.9141 78.5513 16.0166 78.6977 16.0752C78.8442 16.1279 79.0288 16.1543 79.2515 16.1543C79.4097 16.1543 79.5503 16.1484 79.6733 16.1367C79.8022 16.1191 79.9106 16.1016 79.9985 16.084L80.0073 17.9473C79.7905 18.0176 79.5561 18.0732 79.3042 18.1143C79.0522 18.1553 78.7739 18.1758 78.4692 18.1758C77.9126 18.1758 77.4263 18.085 77.0102 17.9033C76.6001 17.7158 76.2837 17.417 76.061 17.0068C75.8384 16.5967 75.727 16.0576 75.727 15.3896V6.14356ZM84.1294 5.20313V18H81.4927V5.20313H84.1294ZM89.227 10.6699V12.7266H83.4087V10.6699H89.227ZM89.8423 5.20313V7.26856H83.4087V5.20313H89.8423ZM93.8852 8.49024V18H91.3452V8.49024H93.8852ZM91.187 6.01172C91.187 5.64258 91.3159 5.33789 91.5737 5.09766C91.8315 4.85742 92.1772 4.73731 92.6108 4.73731C93.0386 4.73731 93.3813 4.85742 93.6392 5.09766C93.9028 5.33789 94.0347 5.64258 94.0347 6.01172C94.0347 6.38086 93.9028 6.68555 93.6392 6.92578C93.3813 7.16602 93.0386 7.28613 92.6108 7.28613C92.1772 7.28613 91.8315 7.16602 91.5737 6.92578C91.3159 6.68555 91.187 6.38086 91.187 6.01172ZM98.4556 10.5205V18H95.9243V8.49024H98.2974L98.4556 10.5205ZM98.0864 12.9111H97.4009C97.4009 12.208 97.4917 11.5752 97.6733 11.0127C97.855 10.4443 98.1099 9.96094 98.438 9.5625C98.7661 9.1582 99.1558 8.85059 99.6069 8.63965C100.064 8.42285 100.574 8.31445 101.136 8.31445C101.582 8.31445 101.989 8.37891 102.358 8.50781C102.727 8.63672 103.043 8.8418 103.307 9.12305C103.577 9.4043 103.782 9.77637 103.922 10.2393C104.069 10.7021 104.142 11.2676 104.142 11.9355V18H101.593V11.9268C101.593 11.5049 101.535 11.1768 101.417 10.9424C101.3 10.708 101.127 10.5439 100.899 10.4502C100.676 10.3506 100.401 10.3008 100.073 10.3008C99.7329 10.3008 99.437 10.3682 99.1851 10.5029C98.939 10.6377 98.7339 10.8252 98.5698 11.0654C98.4116 11.2998 98.2915 11.5752 98.2095 11.8916C98.1274 12.208 98.0864 12.5479 98.0864 12.9111ZM111.683 15.9258V4.5H114.232V18H111.938L111.683 15.9258ZM105.671 13.3594V13.1748C105.671 12.4482 105.753 11.7891 105.917 11.1973C106.082 10.5996 106.322 10.0869 106.638 9.65918C106.955 9.23145 107.344 8.90039 107.807 8.66602C108.27 8.43164 108.797 8.31445 109.389 8.31445C109.946 8.31445 110.432 8.43164 110.848 8.66602C111.27 8.90039 111.627 9.23438 111.92 9.66797C112.219 10.0957 112.459 10.6025 112.641 11.1885C112.823 11.7686 112.955 12.4043 113.037 13.0957V13.5C112.955 14.1621 112.823 14.7773 112.641 15.3457C112.459 15.9141 112.219 16.4121 111.92 16.8398C111.627 17.2617 111.27 17.5898 110.848 17.8242C110.426 18.0586 109.934 18.1758 109.372 18.1758C108.78 18.1758 108.252 18.0557 107.79 17.8154C107.333 17.5752 106.946 17.2383 106.629 16.8047C106.319 16.3711 106.082 15.8613 105.917 15.2754C105.753 14.6895 105.671 14.0508 105.671 13.3594ZM108.203 13.1748V13.3594C108.203 13.752 108.232 14.1182 108.291 14.458C108.355 14.7979 108.458 15.0996 108.598 15.3633C108.745 15.6211 108.932 15.8232 109.161 15.9697C109.395 16.1104 109.679 16.1807 110.013 16.1807C110.447 16.1807 110.804 16.084 111.085 15.8906C111.367 15.6914 111.581 15.4189 111.727 15.0732C111.879 14.7275 111.967 14.3291 111.991 13.8779V12.7266C111.973 12.3574 111.92 12.0264 111.833 11.7334C111.75 11.4346 111.627 11.1797 111.463 10.9688C111.305 10.7578 111.106 10.5938 110.866 10.4766C110.631 10.3594 110.353 10.3008 110.031 10.3008C109.703 10.3008 109.421 10.377 109.187 10.5293C108.953 10.6758 108.762 10.8779 108.616 11.1357C108.475 11.3936 108.37 11.6982 108.299 12.0498C108.235 12.3955 108.203 12.7705 108.203 13.1748ZM120.586 18.1758C119.848 18.1758 119.186 18.0586 118.6 17.8242C118.014 17.584 117.516 17.2529 117.106 16.8311C116.702 16.4092 116.391 15.9199 116.174 15.3633C115.958 14.8008 115.849 14.2031 115.849 13.5703V13.2188C115.849 12.498 115.952 11.8389 116.157 11.2412C116.362 10.6436 116.655 10.125 117.036 9.68555C117.422 9.24609 117.891 8.90918 118.442 8.67481C118.993 8.43457 119.614 8.31445 120.305 8.31445C120.979 8.31445 121.577 8.42578 122.098 8.64844C122.62 8.87109 123.056 9.1875 123.408 9.59766C123.765 10.0078 124.035 10.5 124.216 11.0742C124.398 11.6426 124.489 12.2754 124.489 12.9727V14.0273H116.93V12.3398H122.001V12.1465C122.001 11.7949 121.937 11.4814 121.808 11.2061C121.685 10.9248 121.498 10.7021 121.246 10.5381C120.994 10.374 120.671 10.292 120.279 10.292C119.945 10.292 119.658 10.3652 119.417 10.5117C119.177 10.6582 118.981 10.8633 118.829 11.127C118.682 11.3906 118.571 11.7012 118.495 12.0586C118.424 12.4102 118.389 12.7969 118.389 13.2188V13.5703C118.389 13.9512 118.442 14.3027 118.547 14.625C118.659 14.9473 118.814 15.2256 119.013 15.46C119.218 15.6943 119.464 15.876 119.751 16.0049C120.044 16.1338 120.375 16.1982 120.745 16.1982C121.202 16.1982 121.626 16.1104 122.019 15.9346C122.417 15.7529 122.76 15.4805 123.047 15.1172L124.278 16.4531C124.079 16.7402 123.806 17.0156 123.46 17.2793C123.121 17.543 122.71 17.7598 122.23 17.9297C121.75 18.0937 121.202 18.1758 120.586 18.1758ZM128.461 10.5645V18H125.93V8.49024H128.312L128.461 10.5645ZM131.327 8.42871L131.283 10.7754C131.16 10.7578 131.01 10.7432 130.834 10.7314C130.665 10.7139 130.509 10.7051 130.369 10.7051C130.011 10.7051 129.701 10.752 129.437 10.8457C129.179 10.9336 128.962 11.0654 128.787 11.2412C128.617 11.417 128.488 11.6309 128.4 11.8828C128.318 12.1348 128.271 12.4219 128.259 12.7441L127.75 12.5859C127.75 11.9707 127.811 11.4053 127.934 10.8896C128.057 10.3682 128.236 9.91406 128.47 9.52734C128.71 9.14063 129.003 8.8418 129.349 8.63086C129.695 8.41992 130.09 8.31445 130.536 8.31445C130.676 8.31445 130.82 8.32617 130.966 8.34961C131.113 8.36719 131.233 8.39356 131.327 8.42871Z" fill="#94A3B8"/>
</svg>
