<svg width="125" height="24" viewBox="0 0 125 24" fill="none" xmlns="http://www.w3.org/2000/svg">
<path d="M28.1934 24H37.8816L13.8818 0H4.19336L28.1934 24Z" fill="#94A3B8"/>
<path d="M18.8594 1.22787e-06L41.9949 23.1355V0H35.734V7.30432L28.4296 0L18.8594 1.22787e-06Z" fill="#94A3B8"/>
<path d="M0.137695 0.803513V24H6.39856V16.6956L13.7028 24H23.3342L0.137695 0.803513Z" fill="#94A3B8"/>
<path d="M54.3403 7.3916L50.8599 18H48.0562L52.811 5.20313H54.5952L54.3403 7.3916ZM57.2319 18L53.7427 7.3916L53.4614 5.20313H55.2632L60.0444 18H57.2319ZM57.0737 13.2363V15.3018H50.3149V13.2363H57.0737ZM63.604 10.5645V18H61.0728V8.49024H63.4546L63.604 10.5645ZM66.4692 8.42871L66.4253 10.7754C66.3022 10.7578 66.1528 10.7432 65.977 10.7314C65.8071 10.7139 65.6519 10.7051 65.5112 10.7051C65.1538 10.7051 64.8433 10.752 64.5796 10.8457C64.3218 10.9336 64.105 11.0654 63.9292 11.2412C63.7593 11.417 63.6304 11.6309 63.5425 11.8828C63.4604 12.1348 63.4136 12.4219 63.4019 12.7441L62.8921 12.5859C62.8921 11.9707 62.9536 11.4053 63.0767 10.8896C63.1997 10.3682 63.3784 9.91406 63.6128 9.52734C63.853 9.14063 64.146 8.8418 64.4917 8.63086C64.8374 8.41992 65.2329 8.31445 65.6782 8.31445C65.8188 8.31445 65.9624 8.32617 66.1089 8.34961C66.2554 8.36719 66.3755 8.39356 66.4692 8.42871ZM72.7622 8.49024V10.2832H67.2251V8.49024H72.7622ZM68.5962 6.14356H71.1274V15.1348C71.1274 15.4102 71.1626 15.6211 71.2329 15.7676C71.3091 15.9141 71.4204 16.0166 71.5669 16.0752C71.7134 16.1279 71.8979 16.1543 72.1206 16.1543C72.2788 16.1543 72.4194 16.1484 72.5425 16.1367C72.6714 16.1191 72.7798 16.1016 72.8677 16.084L72.8765 17.9473C72.6597 18.0176 72.4253 18.0732 72.1733 18.1143C71.9214 18.1553 71.6431 18.1758 71.3384 18.1758C70.7817 18.1758 70.2954 18.085 69.8794 17.9033C69.4692 17.7158 69.1528 17.417 68.9302 17.0068C68.7075 16.5967 68.5962 16.0576 68.5962 15.3896V6.14356ZM78.9761 15.3281L81.9907 5.20313H84.9263L80.4702 18H78.5366L78.9761 15.3281ZM76.1987 5.20313L79.2046 15.3281L79.6616 18H77.7104L73.2808 5.20313H76.1987ZM89.9536 18.1758C89.2153 18.1758 88.5532 18.0586 87.9673 17.8242C87.3813 17.584 86.8833 17.2529 86.4731 16.8311C86.0688 16.4092 85.7583 15.9199 85.5415 15.3633C85.3247 14.8008 85.2163 14.2031 85.2163 13.5703V13.2188C85.2163 12.498 85.3188 11.8389 85.5239 11.2412C85.729 10.6436 86.022 10.125 86.4028 9.68555C86.7895 9.24609 87.2583 8.90918 87.8091 8.67481C88.3599 8.43457 88.981 8.31445 89.6724 8.31445C90.3462 8.31445 90.9438 8.42578 91.4653 8.64844C91.9868 8.87109 92.4233 9.1875 92.7749 9.59766C93.1323 10.0078 93.4019 10.5 93.5835 11.0742C93.7651 11.6426 93.856 12.2754 93.856 12.9727V14.0273H86.2974V12.3398H91.3686V12.1465C91.3686 11.7949 91.3042 11.4814 91.1753 11.2061C91.0522 10.9248 90.8647 10.7021 90.6128 10.5381C90.3608 10.374 90.0386 10.292 89.646 10.292C89.312 10.292 89.0249 10.3652 88.7847 10.5117C88.5444 10.6582 88.3481 10.8633 88.1958 11.127C88.0493 11.3906 87.938 11.7012 87.8618 12.0586C87.7915 12.4102 87.7563 12.7969 87.7563 13.2188V13.5703C87.7563 13.9512 87.8091 14.3027 87.9145 14.625C88.0259 14.9473 88.1811 15.2256 88.3804 15.46C88.5854 15.6943 88.8315 15.876 89.1186 16.0049C89.4116 16.1338 89.7427 16.1982 90.1118 16.1982C90.5688 16.1982 90.9936 16.1104 91.3862 15.9346C91.7847 15.7529 92.1274 15.4805 92.4145 15.1172L93.645 16.4531C93.4458 16.7402 93.1733 17.0156 92.8276 17.2793C92.4878 17.543 92.0776 17.7598 91.5972 17.9297C91.1167 18.0937 90.5688 18.1758 89.9536 18.1758ZM97.7759 10.5205V18H95.2446V8.49024H97.6177L97.7759 10.5205ZM97.4067 12.9111H96.7212C96.7212 12.208 96.812 11.5752 96.9936 11.0127C97.1753 10.4443 97.4302 9.96094 97.7583 9.5625C98.0864 9.1582 98.4761 8.85059 98.9272 8.63965C99.3843 8.42285 99.894 8.31445 100.457 8.31445C100.902 8.31445 101.309 8.37891 101.678 8.50781C102.047 8.63672 102.364 8.8418 102.627 9.12305C102.897 9.4043 103.102 9.77637 103.243 10.2393C103.389 10.7021 103.462 11.2676 103.462 11.9355V18H100.914V11.9268C100.914 11.5049 100.855 11.1768 100.738 10.9424C100.621 10.708 100.448 10.5439 100.219 10.4502C99.9966 10.3506 99.7212 10.3008 99.3931 10.3008C99.0532 10.3008 98.7573 10.3682 98.5054 10.5029C98.2593 10.6377 98.0542 10.8252 97.8901 11.0654C97.7319 11.2998 97.6118 11.5752 97.5298 11.8916C97.4477 12.208 97.4067 12.5479 97.4067 12.9111ZM111.012 15.7236V8.49024H113.543V18H111.162L111.012 15.7236ZM111.293 13.7725L112.041 13.7549C112.041 14.3877 111.967 14.9766 111.821 15.5215C111.674 16.0605 111.455 16.5293 111.162 16.9277C110.869 17.3203 110.5 17.6279 110.054 17.8506C109.609 18.0674 109.084 18.1758 108.481 18.1758C108.018 18.1758 107.59 18.1113 107.198 17.9824C106.811 17.8477 106.477 17.6396 106.196 17.3584C105.92 17.0713 105.704 16.7051 105.545 16.2598C105.393 15.8086 105.317 15.2666 105.317 14.6338V8.49024H107.848V14.6514C107.848 14.9326 107.88 15.1699 107.945 15.3633C108.015 15.5566 108.112 15.7148 108.235 15.8379C108.358 15.9609 108.501 16.0488 108.666 16.1016C108.835 16.1543 109.023 16.1807 109.228 16.1807C109.75 16.1807 110.16 16.0752 110.458 15.8643C110.763 15.6533 110.977 15.3662 111.1 15.0029C111.229 14.6338 111.293 14.2236 111.293 13.7725ZM119.854 18.1758C119.116 18.1758 118.454 18.0586 117.868 17.8242C117.282 17.584 116.784 17.2529 116.374 16.8311C115.969 16.4092 115.659 15.9199 115.442 15.3633C115.225 14.8008 115.117 14.2031 115.117 13.5703V13.2188C115.117 12.498 115.219 11.8389 115.424 11.2412C115.629 10.6436 115.922 10.125 116.303 9.68555C116.69 9.24609 117.159 8.90918 117.709 8.67481C118.26 8.43457 118.881 8.31445 119.573 8.31445C120.247 8.31445 120.844 8.42578 121.366 8.64844C121.887 8.87109 122.324 9.1875 122.675 9.59766C123.033 10.0078 123.302 10.5 123.484 11.0742C123.666 11.6426 123.756 12.2754 123.756 12.9727V14.0273H116.198V12.3398H121.269V12.1465C121.269 11.7949 121.205 11.4814 121.076 11.2061C120.953 10.9248 120.765 10.7021 120.513 10.5381C120.261 10.374 119.939 10.292 119.546 10.292C119.212 10.292 118.925 10.3652 118.685 10.5117C118.445 10.6582 118.249 10.8633 118.096 11.127C117.95 11.3906 117.838 11.7012 117.762 12.0586C117.692 12.4102 117.657 12.7969 117.657 13.2188V13.5703C117.657 13.9512 117.709 14.3027 117.815 14.625C117.926 14.9473 118.082 15.2256 118.281 15.46C118.486 15.6943 118.732 15.876 119.019 16.0049C119.312 16.1338 119.643 16.1982 120.012 16.1982C120.469 16.1982 120.894 16.1104 121.287 15.9346C121.685 15.7529 122.028 15.4805 122.315 15.1172L123.545 16.4531C123.346 16.7402 123.074 17.0156 122.728 17.2793C122.388 17.543 121.978 17.7598 121.498 17.9297C121.017 18.0937 120.469 18.1758 119.854 18.1758Z" fill="#94A3B8"/>
</svg>
