<svg width="82" height="24" viewBox="0 0 82 24" fill="none" xmlns="http://www.w3.org/2000/svg">
<path d="M7.58316 14.9863V21.0769C7.58316 21.3104 7.49041 21.5343 7.3253 21.6993C7.16028 21.8644 6.93637 21.9572 6.70285 21.9572C6.46943 21.9572 6.24551 21.8644 6.0804 21.6993C5.91529 21.5343 5.82255 21.3104 5.82255 21.0769V14.9947C6.06768 15.1737 6.36151 15.2737 6.66495 15.2811C6.99567 15.2906 7.31974 15.1865 7.58316 14.9863ZM15.0805 13.2257C14.8571 13.2257 14.6428 13.3145 14.4849 13.4724C14.3269 13.6304 14.2381 13.8447 14.2381 14.0681V15.1295C14.2381 15.363 14.3309 15.5869 14.496 15.752C14.661 15.9171 14.8849 16.0098 15.1184 16.0098C15.352 16.0098 15.5759 15.9171 15.7409 15.752C15.906 15.5869 15.9987 15.363 15.9987 15.1295V14.1102C16.0053 13.9894 15.9858 13.8686 15.9415 13.7561C15.8972 13.6435 15.8292 13.5418 15.742 13.4579C15.6549 13.374 15.5507 13.3098 15.4366 13.2697C15.3225 13.2297 15.201 13.2147 15.0805 13.2257ZM3.9103 17.2945C3.60717 17.2854 3.31373 17.1856 3.06789 17.0081V23.1155C3.06789 23.3501 3.16108 23.5751 3.32697 23.741C3.49284 23.9068 3.71782 24 3.95242 24C4.18701 24 4.41199 23.9068 4.57786 23.741C4.74375 23.5751 4.83694 23.3501 4.83694 23.1155V17.0502C4.56185 17.228 4.23728 17.3136 3.9103 17.2945ZM12.3343 11.3977C12.2202 11.392 12.1061 11.4096 11.9989 11.4493C11.8919 11.4891 11.794 11.5502 11.7112 11.629C11.6285 11.7079 11.5627 11.8026 11.5177 11.9077C11.4728 12.0127 11.4496 12.1259 11.4498 12.2401V16.9323C11.4498 17.1669 11.543 17.3919 11.7088 17.5577C11.8748 17.7236 12.0997 17.8168 12.3343 17.8168C12.5689 17.8168 12.7939 17.7236 12.9598 17.5577C13.1257 17.3919 13.2188 17.1669 13.2188 16.9323V12.2991C13.2256 12.1775 13.2059 12.0559 13.161 11.9427C13.1162 11.8295 13.0475 11.7273 12.9594 11.6432C12.8712 11.5592 12.766 11.4951 12.6509 11.4557C12.5357 11.4162 12.4133 11.4021 12.2922 11.4145L12.3343 11.3977ZM9.53753 13.2004C9.2202 13.1982 8.91138 13.0982 8.65301 12.914V19.0383C8.65301 19.2729 8.74618 19.4979 8.91205 19.6637C9.078 19.8296 9.30292 19.9228 9.53753 19.9228C9.77214 19.9228 9.99706 19.8296 10.163 19.6637C10.3289 19.4979 10.4221 19.2729 10.4221 19.0383V12.9224C10.1548 13.1215 9.82858 13.2253 9.49541 13.2173L9.53753 13.2004ZM1.99805 17.8926V0.783433C1.99583 0.57488 1.91142 0.375635 1.76316 0.228948C1.6149 0.0822605 1.41475 -8.42336e-06 1.20619 6.46875e-10H1.02086C0.812299 -8.42336e-06 0.612153 0.0822605 0.463891 0.228948C0.315628 0.375635 0.231219 0.57488 0.229004 0.783433V17.8926C0.229004 18.1026 0.312435 18.304 0.460934 18.4525C0.609432 18.6011 0.81085 18.6845 1.02086 18.6845H1.20619C1.41621 18.6845 1.61762 18.6011 1.76612 18.4525C1.91462 18.304 1.99805 18.1026 1.99805 17.8926ZM4.00296 16.6458H3.81763C3.60762 16.6458 3.4062 16.5624 3.2577 16.4139C3.10921 16.2654 3.02577 16.064 3.02577 15.854V2.82204C3.028 2.6135 3.1124 2.41424 3.26066 2.26756C3.40892 2.12087 3.60907 2.0386 3.81763 2.03861H4.00296C4.21152 2.0386 4.41167 2.12087 4.55993 2.26756C4.70819 2.41424 4.7926 2.6135 4.79482 2.82204V15.8708C4.79482 16.0808 4.71138 16.2823 4.56289 16.4308C4.41439 16.5793 4.21297 16.6627 4.00296 16.6627V16.6458ZM6.79131 14.6409H6.59755C6.38982 14.6409 6.19051 14.5584 6.04359 14.4115C5.89668 14.2645 5.81412 14.0653 5.81412 13.8575V4.8438C5.81303 4.74021 5.83249 4.63743 5.87132 4.54141C5.91015 4.44538 5.96769 4.35803 6.04056 4.28438C6.11343 4.21074 6.20019 4.15228 6.29581 4.11238C6.39142 4.07249 6.49394 4.05194 6.59755 4.05195H6.79131C6.99988 4.05417 7.19911 4.13857 7.34577 4.28683C7.49252 4.4351 7.57474 4.63524 7.57474 4.8438V13.8575C7.57474 14.0653 7.49218 14.2645 7.34527 14.4115C7.19835 14.5584 6.99913 14.6409 6.79131 14.6409ZM9.57965 12.577H9.40275C9.19417 12.577 8.99402 12.4948 8.84575 12.3481C8.69749 12.2014 8.61308 12.0022 8.61089 11.7936V6.94138C8.60398 6.83322 8.61932 6.7248 8.65604 6.62279C8.69269 6.52086 8.74997 6.42743 8.82419 6.3485C8.8984 6.26948 8.98803 6.20664 9.08761 6.16368C9.18709 6.1208 9.29433 6.09873 9.40275 6.09898H9.58808C9.79809 6.09898 9.99951 6.18238 10.148 6.33089C10.2965 6.47941 10.3799 6.68083 10.3799 6.89084V11.7768C10.381 11.8815 10.3614 11.9853 10.3221 12.0824C10.2828 12.1794 10.2247 12.2677 10.151 12.3422C10.0773 12.4166 9.98973 12.4756 9.89303 12.516C9.7964 12.5563 9.69279 12.577 9.58808 12.577H9.57965ZM12.3764 10.7659H12.1911C11.9811 10.7659 11.7797 10.6825 11.6312 10.534C11.4826 10.3855 11.3992 10.184 11.3992 9.97403V8.71885C11.4014 8.51027 11.4858 8.31104 11.6341 8.16438C11.7824 8.01763 11.9825 7.93542 12.1911 7.93542H12.3764C12.585 7.93542 12.7852 8.01763 12.9334 8.16438C13.0817 8.31104 13.1661 8.51027 13.1683 8.71885V9.97403C13.1683 10.1826 13.0861 10.3828 12.9393 10.531C12.7927 10.6793 12.5934 10.7637 12.3848 10.7659H12.3764Z" fill="#94A3B8"/>
<path d="M26.2275 15.9697L28.7764 5.20313H30.2002L30.5254 6.99609L27.8096 18H26.2803L26.2275 15.9697ZM24.918 5.20313L27.0273 15.9697L26.8516 18H25.1465L22.3076 5.20313H24.918ZM32.7666 15.9258L34.8496 5.20313H37.46L34.6299 18H32.9248L32.7666 15.9258ZM31 5.20313L33.5664 16.0137L33.4961 18H31.9668L29.2334 6.98731L29.585 5.20313H31ZM43.709 7.3916L40.2285 18H37.4248L42.1797 5.20313H43.9639L43.709 7.3916ZM46.6006 18L43.1113 7.3916L42.8301 5.20313H44.6318L49.4131 18H46.6006ZM46.4424 13.2363V15.3018H39.6836V13.2363H46.4424ZM54.4932 15.3281L57.5078 5.20313H60.4434L55.9873 18H54.0537L54.4932 15.3281ZM51.7158 5.20313L54.7217 15.3281L55.1787 18H53.2275L48.7978 5.20313H51.7158ZM70.2256 15.9434V18H63.4141V15.9434H70.2256ZM64.2754 5.20313V18H61.6387V5.20313H64.2754ZM69.3379 10.415V12.4189H63.4141V10.415H69.3379ZM70.2168 5.20313V7.26856H63.4141V5.20313H70.2168ZM78.4258 14.6514C78.4258 14.4229 78.3906 14.2178 78.3203 14.0361C78.2559 13.8486 78.1328 13.6787 77.9512 13.5264C77.7695 13.3682 77.5146 13.2129 77.1865 13.0605C76.8584 12.9082 76.4336 12.75 75.9121 12.5859C75.332 12.3984 74.7812 12.1875 74.2598 11.9531C73.7441 11.7188 73.2871 11.4463 72.8887 11.1357C72.4961 10.8193 72.1855 10.4531 71.957 10.0371C71.7344 9.62109 71.623 9.1377 71.623 8.58692C71.623 8.05371 71.7402 7.57031 71.9746 7.13672C72.209 6.69727 72.5371 6.32227 72.959 6.01172C73.3809 5.69531 73.8789 5.45215 74.4531 5.28223C75.0332 5.11231 75.6689 5.02735 76.3603 5.02735C77.3037 5.02735 78.1269 5.19727 78.8301 5.53711C79.5332 5.87695 80.0781 6.34277 80.4648 6.93457C80.8574 7.52637 81.0537 8.20313 81.0537 8.96484H78.4346C78.4346 8.58984 78.3555 8.26172 78.1973 7.98047C78.0449 7.69336 77.8105 7.46777 77.4941 7.30371C77.1836 7.13965 76.791 7.05762 76.3164 7.05762C75.8594 7.05762 75.4785 7.12793 75.1738 7.26856C74.8691 7.40332 74.6406 7.58789 74.4883 7.82227C74.3359 8.05078 74.2598 8.30859 74.2598 8.5957C74.2598 8.8125 74.3125 9.00879 74.418 9.18457C74.5293 9.36035 74.6934 9.52441 74.9102 9.67676C75.1269 9.8291 75.3936 9.97266 75.71 10.1074C76.0264 10.2422 76.3926 10.374 76.8086 10.5029C77.5059 10.7139 78.1182 10.9512 78.6455 11.2148C79.1787 11.4785 79.624 11.7744 79.9814 12.1025C80.3389 12.4307 80.6084 12.8027 80.79 13.2188C80.9717 13.6348 81.0625 14.1064 81.0625 14.6338C81.0625 15.1904 80.9541 15.6885 80.7373 16.1279C80.5205 16.5674 80.207 16.9395 79.7969 17.2441C79.3867 17.5488 78.8975 17.7803 78.3291 17.9385C77.7607 18.0967 77.125 18.1758 76.4219 18.1758C75.7891 18.1758 75.165 18.0937 74.5498 17.9297C73.9346 17.7598 73.375 17.5049 72.8711 17.165C72.373 16.8252 71.9746 16.3916 71.6758 15.8643C71.3769 15.3369 71.2275 14.7129 71.2275 13.9922H73.873C73.873 14.3906 73.9346 14.7275 74.0576 15.0029C74.1807 15.2783 74.3535 15.501 74.5762 15.6709C74.8047 15.8408 75.0742 15.9639 75.3848 16.04C75.7012 16.1162 76.0469 16.1543 76.4219 16.1543C76.8789 16.1543 77.2539 16.0898 77.5469 15.9609C77.8457 15.832 78.0654 15.6533 78.2061 15.4248C78.3525 15.1963 78.4258 14.9385 78.4258 14.6514Z" fill="#94A3B8"/>
</svg>
