<svg width="28" height="26" viewBox="0 0 28 26" fill="none" xmlns="http://www.w3.org/2000/svg">
<g filter="url(#filter0_i_894_8228)">
<path d="M23.6702 0.334839H4.33691C3.23234 0.334839 2.33691 1.23027 2.33691 2.33484V5.33484C2.33691 6.43941 3.23234 7.33484 4.33691 7.33484H23.6702C24.7748 7.33484 25.6702 6.43941 25.6702 5.33484V2.33484C25.6702 1.23027 24.7748 0.334839 23.6702 0.334839Z" fill="#C4C4C4"/>
</g>
<path fill-rule="evenodd" clip-rule="evenodd" d="M6.98291 3.06096L9.48431 5.67316H12.096L8.37091 1.61816L6.98291 3.06096Z" fill="url(#paint0_linear_894_8228)"/>
<g filter="url(#filter1_d_894_8228)">
<path fill-rule="evenodd" clip-rule="evenodd" d="M7.66992 3.33496C8.22222 3.33496 8.66992 2.88726 8.66992 2.33496C8.66992 1.78266 8.22222 1.33496 7.66992 1.33496C7.11762 1.33496 6.66992 1.78266 6.66992 2.33496C6.66992 2.88726 7.11762 3.33496 7.66992 3.33496Z" fill="#EFEFEF"/>
</g>
<path fill-rule="evenodd" clip-rule="evenodd" d="M19.6494 3.06096L22.1508 5.67316H24.7625L21.0374 1.61816L19.6494 3.06096Z" fill="url(#paint1_linear_894_8228)"/>
<g filter="url(#filter2_d_894_8228)">
<path fill-rule="evenodd" clip-rule="evenodd" d="M20.3369 3.33496C20.8892 3.33496 21.3369 2.88726 21.3369 2.33496C21.3369 1.78266 20.8892 1.33496 20.3369 1.33496C19.7846 1.33496 19.3369 1.78266 19.3369 2.33496C19.3369 2.88726 19.7846 3.33496 20.3369 3.33496Z" fill="#EFEFEF"/>
</g>
<g filter="url(#filter3_i_894_8228)">
<path fill-rule="evenodd" clip-rule="evenodd" d="M27.0443 6.3349C27.2129 5.2305 26.4318 4.33484 25.2992 4.33484H2.70106C1.56939 4.33484 0.787191 5.2303 0.956024 6.3349L2.28059 15.0004L1.56332 23.665C1.39449 24.7696 2.86726 25.6651 3.99892 25.6651H24.1184C25.251 25.6651 26.386 24.7694 26.2172 23.665L25.7197 15.0007L27.0443 6.3349Z" fill="#4687F4"/>
</g>
<g filter="url(#filter4_i_894_8228)">
<path fill-rule="evenodd" clip-rule="evenodd" d="M2.70106 4.33484H25.2992C26.4318 4.33484 27.2129 5.23051 27.0443 6.33491L25.7195 15.0015H2.28072L0.956024 6.33491C0.787191 5.2303 1.56939 4.33484 2.70106 4.33484Z" fill="#3866D0"/>
</g>
<path fill-rule="evenodd" clip-rule="evenodd" d="M24.1188 25.6651C25.2513 25.6651 26.3864 24.7694 26.2176 23.665L25.7158 15.1653H2.26904L12.3938 25.6651H24.1188Z" fill="url(#paint2_linear_894_8228)"/>
<path fill-rule="evenodd" clip-rule="evenodd" d="M15.6229 10.8684L19.9723 9.20605V20.7055H18.6297V11.0644L15.6229 12.1838V10.8684ZM9.11438 14.2606H10.4157C11.0764 14.2606 11.5442 14.0931 11.8191 13.758C12.094 13.4229 12.2314 12.9561 12.2314 12.3575C12.2314 11.7181 12.0751 11.2321 11.7623 10.8995C11.4496 10.567 10.9881 10.4007 10.3778 10.4007C9.79781 10.4007 9.33251 10.5734 8.98198 10.9187C8.63145 11.264 8.45618 11.7232 8.45618 12.2962H7.02625L7.01111 12.2501C6.98591 11.406 7.28728 10.6885 7.91521 10.0976C8.54318 9.50675 9.36405 9.21132 10.3778 9.21132C11.3967 9.21132 12.2087 9.48629 12.814 10.0362C13.4192 10.5862 13.7218 11.3702 13.7218 12.3882C13.7218 12.8487 13.5844 13.3078 13.3095 13.7657C13.0346 14.2235 12.6223 14.5727 12.0725 14.8131C12.7333 15.0331 13.2011 15.3784 13.476 15.8491C13.7508 16.3197 13.8883 16.8467 13.8883 17.4299C13.8883 18.4479 13.5592 19.2485 12.901 19.8318C12.2428 20.415 11.4017 20.7066 10.3778 20.7066C9.37411 20.7066 8.54318 20.4316 7.88495 19.8816C7.22675 19.3317 6.91025 18.5861 6.93548 17.6447L6.95818 17.5987H8.38051C8.38051 18.187 8.55831 18.6551 8.91388 19.003C9.26948 19.3509 9.75745 19.5248 10.3778 19.5248C11.0083 19.5248 11.5026 19.3509 11.8607 19.003C12.2188 18.6551 12.3979 18.141 12.3979 17.4606C12.3979 16.7699 12.239 16.2609 11.9212 15.9335C11.6035 15.6061 11.1016 15.4424 10.4157 15.4424H9.11438V14.2606Z" fill="#EEEEEE"/>
<path fill-rule="evenodd" clip-rule="evenodd" d="M12.5338 15.0025H9.11446V14.2606H10.4158C11.0765 14.2606 11.5443 14.0931 11.8192 13.758C12.0941 13.4229 12.2315 12.9561 12.2315 12.3575C12.2315 11.7181 12.0752 11.2321 11.7625 10.8995C11.4497 10.567 10.9882 10.4007 10.3779 10.4007C9.79789 10.4007 9.33263 10.5734 8.98206 10.9187C8.63153 11.264 8.45626 11.7232 8.45626 12.2962H7.02636L7.01123 12.2501C6.98599 11.406 7.28736 10.6885 7.91533 10.0976C8.54326 9.50675 9.36413 9.21132 10.3779 9.21132C11.3968 9.21132 12.2088 9.48629 12.8141 10.0362C13.4193 10.5862 13.722 11.3702 13.722 12.3882C13.722 12.8487 13.5845 13.3078 13.3096 13.7657C13.0347 14.2235 12.6224 14.5727 12.0726 14.8131C12.2385 14.8684 12.3922 14.9315 12.5338 15.0025ZM19.9724 14.9968V9.20605L15.6231 10.8684V12.1838L18.6298 11.0644V14.9968H19.9724Z" fill="#D4D4D4"/>
<g filter="url(#filter5_i_894_8228)">
<path fill-rule="evenodd" clip-rule="evenodd" d="M3.9992 25.6652H24.1187C25.2513 25.6652 26.3863 24.7695 26.2175 23.6651L25.7198 14.9985H2.28103L1.5636 23.6651C1.39477 24.7698 2.86753 25.6652 3.9992 25.6652Z" fill="black" fill-opacity="0.01"/>
</g>
<defs>
<filter id="filter0_i_894_8228" x="2.33691" y="0.334839" width="23.333" height="7.625" filterUnits="userSpaceOnUse" color-interpolation-filters="sRGB">
<feFlood flood-opacity="0" result="BackgroundImageFix"/>
<feBlend mode="normal" in="SourceGraphic" in2="BackgroundImageFix" result="shape"/>
<feColorMatrix in="SourceAlpha" type="matrix" values="0 0 0 0 0 0 0 0 0 0 0 0 0 0 0 0 0 0 127 0" result="hardAlpha"/>
<feOffset dy="0.625"/>
<feGaussianBlur stdDeviation="1.25"/>
<feComposite in2="hardAlpha" operator="arithmetic" k2="-1" k3="1"/>
<feColorMatrix type="matrix" values="0 0 0 0 0.792157 0 0 0 0 0.792157 0 0 0 0 0.792157 0 0 0 1 0"/>
<feBlend mode="normal" in2="shape" result="effect1_innerShadow_894_8228"/>
</filter>
<filter id="filter1_d_894_8228" x="6.35742" y="1.33496" width="3.25" height="3.25" filterUnits="userSpaceOnUse" color-interpolation-filters="sRGB">
<feFlood flood-opacity="0" result="BackgroundImageFix"/>
<feColorMatrix in="SourceAlpha" type="matrix" values="0 0 0 0 0 0 0 0 0 0 0 0 0 0 0 0 0 0 127 0" result="hardAlpha"/>
<feOffset dx="0.3125" dy="0.625"/>
<feGaussianBlur stdDeviation="0.3125"/>
<feColorMatrix type="matrix" values="0 0 0 0 0 0 0 0 0 0 0 0 0 0 0 0 0 0 0.1 0"/>
<feBlend mode="normal" in2="BackgroundImageFix" result="effect1_dropShadow_894_8228"/>
<feBlend mode="normal" in="SourceGraphic" in2="effect1_dropShadow_894_8228" result="shape"/>
</filter>
<filter id="filter2_d_894_8228" x="19.0244" y="1.33496" width="3.25" height="3.25" filterUnits="userSpaceOnUse" color-interpolation-filters="sRGB">
<feFlood flood-opacity="0" result="BackgroundImageFix"/>
<feColorMatrix in="SourceAlpha" type="matrix" values="0 0 0 0 0 0 0 0 0 0 0 0 0 0 0 0 0 0 127 0" result="hardAlpha"/>
<feOffset dx="0.3125" dy="0.625"/>
<feGaussianBlur stdDeviation="0.3125"/>
<feColorMatrix type="matrix" values="0 0 0 0 0 0 0 0 0 0 0 0 0 0 0 0 0 0 0.1 0"/>
<feBlend mode="normal" in2="BackgroundImageFix" result="effect1_dropShadow_894_8228"/>
<feBlend mode="normal" in="SourceGraphic" in2="effect1_dropShadow_894_8228" result="shape"/>
</filter>
<filter id="filter3_i_894_8228" x="0.933105" y="3.70984" width="26.1343" height="21.9553" filterUnits="userSpaceOnUse" color-interpolation-filters="sRGB">
<feFlood flood-opacity="0" result="BackgroundImageFix"/>
<feBlend mode="normal" in="SourceGraphic" in2="BackgroundImageFix" result="shape"/>
<feColorMatrix in="SourceAlpha" type="matrix" values="0 0 0 0 0 0 0 0 0 0 0 0 0 0 0 0 0 0 127 0" result="hardAlpha"/>
<feOffset dy="-0.625"/>
<feGaussianBlur stdDeviation="1.25"/>
<feComposite in2="hardAlpha" operator="arithmetic" k2="-1" k3="1"/>
<feColorMatrix type="matrix" values="0 0 0 0 0.258824 0 0 0 0 0.494118 0 0 0 0 0.913725 0 0 0 1 0"/>
<feBlend mode="normal" in2="shape" result="effect1_innerShadow_894_8228"/>
</filter>
<filter id="filter4_i_894_8228" x="0.933105" y="4.33484" width="26.1343" height="11.2916" filterUnits="userSpaceOnUse" color-interpolation-filters="sRGB">
<feFlood flood-opacity="0" result="BackgroundImageFix"/>
<feBlend mode="normal" in="SourceGraphic" in2="BackgroundImageFix" result="shape"/>
<feColorMatrix in="SourceAlpha" type="matrix" values="0 0 0 0 0 0 0 0 0 0 0 0 0 0 0 0 0 0 127 0" result="hardAlpha"/>
<feOffset dy="0.625"/>
<feGaussianBlur stdDeviation="1.25"/>
<feComposite in2="hardAlpha" operator="arithmetic" k2="-1" k3="1"/>
<feColorMatrix type="matrix" values="0 0 0 0 0.282353 0 0 0 0 0.45098 0 0 0 0 0.831373 0 0 0 1 0"/>
<feBlend mode="normal" in2="shape" result="effect1_innerShadow_894_8228"/>
</filter>
<filter id="filter5_i_894_8228" x="1.55029" y="14.9985" width="24.6841" height="10.9791" filterUnits="userSpaceOnUse" color-interpolation-filters="sRGB">
<feFlood flood-opacity="0" result="BackgroundImageFix"/>
<feBlend mode="normal" in="SourceGraphic" in2="BackgroundImageFix" result="shape"/>
<feColorMatrix in="SourceAlpha" type="matrix" values="0 0 0 0 0 0 0 0 0 0 0 0 0 0 0 0 0 0 127 0" result="hardAlpha"/>
<feOffset dy="0.3125"/>
<feGaussianBlur stdDeviation="1.25"/>
<feComposite in2="hardAlpha" operator="arithmetic" k2="-1" k3="1"/>
<feColorMatrix type="matrix" values="0 0 0 0 0.588542 0 0 0 0 0.588542 0 0 0 0 0.588542 0 0 0 0.2 0"/>
<feBlend mode="normal" in2="shape" result="effect1_innerShadow_894_8228"/>
</filter>
<linearGradient id="paint0_linear_894_8228" x1="5.80808" y1="3.529" x2="7.78391" y2="7.2027" gradientUnits="userSpaceOnUse">
<stop stop-color="#B0B0B0"/>
<stop offset="1" stop-color="#D8D8D8" stop-opacity="0.01"/>
</linearGradient>
<linearGradient id="paint1_linear_894_8228" x1="18.4746" y1="3.529" x2="20.4504" y2="7.2027" gradientUnits="userSpaceOnUse">
<stop stop-color="#B0B0B0"/>
<stop offset="1" stop-color="#D8D8D8" stop-opacity="0.01"/>
</linearGradient>
<linearGradient id="paint2_linear_894_8228" x1="5.65528" y1="16.379" x2="6.77471" y2="26.3335" gradientUnits="userSpaceOnUse">
<stop stop-color="#3C78DD"/>
<stop offset="1" stop-color="#4688F4" stop-opacity="0.01"/>
</linearGradient>
</defs>
</svg>
