<svg width="14" height="22" viewBox="0 0 14 22" fill="none" xmlns="http://www.w3.org/2000/svg">
<path fill-rule="evenodd" clip-rule="evenodd" d="M11.9007 14.3037C12.4822 13.5861 13.0702 12.4017 13.11 10.9955C13.1355 10.0977 13.0633 9.39974 12.8037 8.76303C12.3114 7.55534 11.3323 6.72091 10.3824 6.2351C10.3824 6.2351 8.7434 5.40717 6.68278 4.47554C6.68278 4.47554 4.49092 3.53975 3.06927 2.08427C3.06927 2.08427 2.42355 1.33639 2.1242 0.875C2.1242 0.875 0.902117 3.32859 0.902117 4.82558C0.902117 4.82558 0.733492 6.41163 1.44759 7.25062C2.16169 8.08964 3.29312 8.65286 3.29312 8.65286C3.29312 8.65286 4.53535 9.35821 6.56534 10.1971C8.73954 11.0855 9.45795 11.6362 9.45795 11.6362C9.45795 11.6362 10.1319 12.1764 10.6097 12.9808C10.9593 13.5694 11.242 14.2731 10.9024 15.1638C10.9024 15.1638 11.4068 14.9133 11.9007 14.3037Z" fill="url(#paint0_linear_894_3215)"/>
<mask id="mask0_894_3215" style="mask-type:alpha" maskUnits="userSpaceOnUse" x="0" y="0" width="14" height="16">
<path fill-rule="evenodd" clip-rule="evenodd" d="M11.9007 14.3037C12.4822 13.5861 13.0702 12.4017 13.11 10.9955C13.1355 10.0977 13.0633 9.39974 12.8037 8.76303C12.3114 7.55534 11.3323 6.72091 10.3824 6.2351C10.3824 6.2351 8.7434 5.40717 6.68278 4.47554C6.68278 4.47554 4.49092 3.53975 3.06927 2.08427C3.06927 2.08427 2.42355 1.33639 2.1242 0.875C2.1242 0.875 0.902117 3.32859 0.902117 4.82558C0.902117 4.82558 0.733492 6.41163 1.44759 7.25062C2.16169 8.08964 3.29312 8.65286 3.29312 8.65286C3.29312 8.65286 4.53535 9.35821 6.56534 10.1971C8.73954 11.0855 9.45795 11.6362 9.45795 11.6362C9.45795 11.6362 10.1319 12.1764 10.6097 12.9808C10.9593 13.5694 11.242 14.2731 10.9024 15.1638C10.9024 15.1638 11.4068 14.9133 11.9007 14.3037Z" fill="white"/>
</mask>
<g mask="url(#mask0_894_3215)">
<path opacity="0.52746" fill-rule="evenodd" clip-rule="evenodd" d="M2.1358 0.83313C2.1358 0.83313 1.62168 2.81235 2.87881 4.6316C3.52711 5.56978 4.82025 6.47057 6.69091 7.12594C8.1024 7.62048 9.21573 8.04862 10.0622 8.56193C12.5129 10.0481 12.996 12.002 13.6693 13.3789C14.5751 15.2316 10.7329 16.2832 10.7329 16.2832L5.22908 10.9588L-0.522894 7.53796L-0.798828 2.67381L2.1358 0.83313Z" fill="url(#paint1_linear_894_3215)"/>
</g>
<path fill-rule="evenodd" clip-rule="evenodd" d="M4.9612 10.87C6.02998 11.3654 6.7557 11.5204 6.7557 11.5204C6.7557 11.5204 8.34747 11.9406 9.46449 11.6412C9.46449 11.6412 9.88246 11.9198 10.2917 12.4097C10.618 12.8004 10.9368 13.3287 11.0475 13.9333C11.0475 13.9333 11.2021 14.5633 10.9053 15.1637C10.9053 15.1637 10.0742 15.4207 9.33224 15.3263C9.33224 15.3263 8.8231 13.9024 6.37461 12.8968C6.37461 12.8968 5.10325 12.3532 3.73386 11.8405C3.73386 11.8405 2.8077 11.3667 2.88882 10.6786C2.88882 10.6786 2.93143 10.4274 3.31134 10.3617C3.41683 10.3435 3.57599 10.3426 3.73386 10.3617C3.73386 10.3617 4.06001 10.4491 4.9612 10.87Z" fill="url(#paint2_linear_894_3215)"/>
<mask id="mask1_894_3215" style="mask-type:alpha" maskUnits="userSpaceOnUse" x="2" y="10" width="10" height="6">
<path fill-rule="evenodd" clip-rule="evenodd" d="M4.9612 10.87C6.02998 11.3654 6.7557 11.5204 6.7557 11.5204C6.7557 11.5204 8.34747 11.9406 9.46449 11.6412C9.46449 11.6412 9.88246 11.9198 10.2917 12.4097C10.618 12.8004 10.9368 13.3287 11.0475 13.9333C11.0475 13.9333 11.2021 14.5633 10.9053 15.1637C10.9053 15.1637 10.0742 15.4207 9.33224 15.3263C9.33224 15.3263 8.8231 13.9024 6.37461 12.8968C6.37461 12.8968 5.10325 12.3532 3.73386 11.8405C3.73386 11.8405 2.8077 11.3667 2.88882 10.6786C2.88882 10.6786 2.93143 10.4274 3.31134 10.3617C3.41683 10.3435 3.57599 10.3426 3.73386 10.3617C3.73386 10.3617 4.06001 10.4491 4.9612 10.87Z" fill="white"/>
</mask>
<g mask="url(#mask1_894_3215)">
<path fill-rule="evenodd" clip-rule="evenodd" d="M5.57019 12.5974C5.57019 12.5974 9.00189 14.2227 11.347 12.9553C13.6922 11.6879 8.2536 11.3723 8.2536 11.3723L3.37049 10.1525L2.29883 11.0506L3.18515 12.1066" fill="url(#paint3_linear_894_3215)"/>
</g>
<path fill-rule="evenodd" clip-rule="evenodd" d="M2.92695 10.8231C2.9409 11.4222 3.73085 11.7611 3.73085 11.7611C3.73085 11.7611 5.41649 12.4297 5.93197 12.6573C5.93197 12.6573 7.57318 13.3277 8.39329 14.0893C8.39329 14.0893 10.0045 15.4522 9.9576 17.4734C9.9576 17.4734 9.98044 19.7995 7.73348 21.125C7.73348 21.125 7.84682 19.0842 5.88253 17.4495C5.88253 17.4495 4.11323 15.9962 3.02335 15.2564C3.02335 15.2564 1.49616 14.2472 1.32123 12.821C1.32123 12.821 1.09265 11.1527 2.31014 10.4194C2.31014 10.4194 2.93443 10.0613 3.75226 10.366C3.75226 10.366 2.91301 10.2239 2.92695 10.8231Z" fill="url(#paint4_linear_894_3215)"/>
<mask id="mask2_894_3215" style="mask-type:alpha" maskUnits="userSpaceOnUse" x="1" y="10" width="9" height="12">
<path fill-rule="evenodd" clip-rule="evenodd" d="M2.92695 10.8231C2.9409 11.4222 3.73085 11.7611 3.73085 11.7611C3.73085 11.7611 5.41649 12.4297 5.93197 12.6573C5.93197 12.6573 7.57318 13.3277 8.39329 14.0893C8.39329 14.0893 10.0045 15.4522 9.9576 17.4734C9.9576 17.4734 9.98044 19.7995 7.73348 21.125C7.73348 21.125 7.84682 19.0842 5.88253 17.4495C5.88253 17.4495 4.11323 15.9962 3.02335 15.2564C3.02335 15.2564 1.49616 14.2472 1.32123 12.821C1.32123 12.821 1.09265 11.1527 2.31014 10.4194C2.31014 10.4194 2.93443 10.0613 3.75226 10.366C3.75226 10.366 2.91301 10.2239 2.92695 10.8231Z" fill="white"/>
</mask>
<g mask="url(#mask2_894_3215)">
<g filter="url(#filter0_d_894_3215)">
<path fill-rule="evenodd" clip-rule="evenodd" d="M9.17596 11.7993C9.17596 11.7993 5.11327 12.1861 4.74161 12.3145C3.99888 12.5712 2.24053 12.0926 3.81547 12.9791C4.01116 13.0893 4.34773 13.2311 4.74161 13.3862C5.22795 13.5778 5.80338 13.7958 6.32973 14.0737C8.08451 15 8.70194 16.0667 9.01961 16.9472C9.41399 18.0404 8.90262 18.9548 8.48876 19.9164C8.09296 20.8361 7.51553 21.4296 7.13744 21.9449C7.11481 21.9758 6.84091 21.8014 6.82171 21.8333C5.87615 23.4045 11.4256 18.659 11.4256 18.659L10.2134 13.8228L8.02722 12.3145L9.17596 11.7993Z" fill="black" fill-opacity="0.01"/>
</g>
<path fill-rule="evenodd" clip-rule="evenodd" d="M3.73165 10.3569C3.73165 10.3569 3.43585 10.2368 2.95983 10.3569C2.1731 10.5954 1.19855 12.2911 5.46077 13.6992C8.96867 15.0264 9.52886 17.748 8.78164 19.4841C8.36214 20.4588 7.59284 21.291 7.25286 21.8559C6.30728 23.4271 11.4259 18.6591 11.4259 18.6591L10.2138 13.8229L8.02759 12.3145L3.73165 10.3569Z" fill="url(#paint5_linear_894_3215)"/>
<path fill-rule="evenodd" clip-rule="evenodd" d="M3.32377 9.82443L6.12494 10.2626C6.12494 10.2626 4.5199 10.0438 3.44847 10.1504C3.08794 10.1863 2.35906 10.2652 2.2473 10.3761C1.37914 10.8921 0.725479 13.5552 4.39468 15.0314C9.44541 17.2529 8.83874 19.1281 6.98445 22.4694C5.13016 25.8107 -2.18018 14.4618 -2.18018 14.4618L-0.306256 9.27429L3.32377 9.82443Z" fill="url(#paint6_linear_894_3215)"/>
</g>
<defs>
<filter id="filter0_d_894_3215" x="2.05518" y="9.17432" width="14.9956" height="17.1028" filterUnits="userSpaceOnUse" color-interpolation-filters="sRGB">
<feFlood flood-opacity="0" result="BackgroundImageFix"/>
<feColorMatrix in="SourceAlpha" type="matrix" values="0 0 0 0 0 0 0 0 0 0 0 0 0 0 0 0 0 0 127 0" result="hardAlpha"/>
<feOffset dx="2.25" dy="0.75"/>
<feGaussianBlur stdDeviation="1.6875"/>
<feColorMatrix type="matrix" values="0 0 0 0 1 0 0 0 0 0.225204 0 0 0 0 0 0 0 0 0.677281 0"/>
<feBlend mode="normal" in2="BackgroundImageFix" result="effect1_dropShadow_894_3215"/>
<feBlend mode="normal" in="SourceGraphic" in2="effect1_dropShadow_894_3215" result="shape"/>
</filter>
<linearGradient id="paint0_linear_894_3215" x1="-0.311407" y1="8.53768" x2="10.1874" y2="14.5361" gradientUnits="userSpaceOnUse">
<stop stop-color="#53FEE4"/>
<stop offset="0.512023" stop-color="#2EA7AF"/>
<stop offset="1" stop-color="#084D78"/>
</linearGradient>
<linearGradient id="paint1_linear_894_3215" x1="-2.45367" y1="12.7117" x2="9.84284" y2="18.6302" gradientUnits="userSpaceOnUse">
<stop stop-color="#60FFE9"/>
<stop offset="0.239679" stop-color="#39BCC0"/>
<stop offset="0.687649" stop-color="#156795"/>
<stop offset="1" stop-color="#0E567E"/>
</linearGradient>
<linearGradient id="paint2_linear_894_3215" x1="8.01121" y1="14.9851" x2="11.0877" y2="14.9851" gradientUnits="userSpaceOnUse">
<stop stop-color="#830173"/>
<stop offset="1" stop-color="#6F0079"/>
</linearGradient>
<linearGradient id="paint3_linear_894_3215" x1="1.9801" y1="12.3067" x2="4.56827" y2="16.3017" gradientUnits="userSpaceOnUse">
<stop stop-color="#91007B"/>
<stop offset="0.252014" stop-color="#BC017A"/>
<stop offset="0.411661" stop-color="#D20179"/>
<stop offset="0.665063" stop-color="#BC0179"/>
<stop offset="1" stop-color="#92017A"/>
</linearGradient>
<linearGradient id="paint4_linear_894_3215" x1="-0.708549" y1="17.8581" x2="8.72029" y2="22.4751" gradientUnits="userSpaceOnUse">
<stop stop-color="#FFE249"/>
<stop offset="0.414108" stop-color="#FD9531"/>
<stop offset="0.542223" stop-color="#FE7829"/>
<stop offset="0.659738" stop-color="#FE6824"/>
<stop offset="0.861605" stop-color="#FE5C1F"/>
<stop offset="1" stop-color="#FF4918"/>
</linearGradient>
<linearGradient id="paint5_linear_894_3215" x1="0.0298543" y1="14.8078" x2="6.30965" y2="22.4413" gradientUnits="userSpaceOnUse">
<stop stop-color="#FFE84C"/>
<stop offset="0.660206" stop-color="#FD6F27"/>
<stop offset="1" stop-color="#FE6321"/>
</linearGradient>
<linearGradient id="paint6_linear_894_3215" x1="-2.94071" y1="15.2229" x2="5.83444" y2="23.1292" gradientUnits="userSpaceOnUse">
<stop stop-color="#FEEF4C"/>
<stop offset="0.115863" stop-color="#FFF54F"/>
<stop offset="0.580454" stop-color="#FB5B1F"/>
<stop offset="1" stop-color="#FE4819"/>
</linearGradient>
</defs>
</svg>
