<svg width="26" height="26" viewBox="0 0 26 26" fill="none" xmlns="http://www.w3.org/2000/svg">
<path d="M23.5003 0.166687H2.50033C1.21166 0.166687 0.166992 1.21136 0.166992 2.50002V23.5C0.166992 24.7887 1.21166 25.8334 2.50033 25.8334H23.5003C24.789 25.8334 25.8337 24.7887 25.8337 23.5V2.50002C25.8337 1.21136 24.789 0.166687 23.5003 0.166687Z" fill="#4C8BF5"/>
<mask id="mask0_894_8135" style="mask-type:alpha" maskUnits="userSpaceOnUse" x="0" y="0" width="26" height="26">
<path d="M23.5003 0.166687H2.50033C1.21166 0.166687 0.166992 1.21136 0.166992 2.50002V23.5C0.166992 24.7887 1.21166 25.8334 2.50033 25.8334H23.5003C24.789 25.8334 25.8337 24.7887 25.8337 23.5V2.50002C25.8337 1.21136 24.789 0.166687 23.5003 0.166687Z" fill="white"/>
</mask>
<g mask="url(#mask0_894_8135)">
<path fill-rule="evenodd" clip-rule="evenodd" d="M5.99219 20.3748L12.6669 26.663H26.2606L26.5003 12.5L20.1865 5.7995L19.823 17.317L11.6932 20.3748H5.99219Z" fill="url(#paint0_linear_894_8135)"/>
<g filter="url(#filter0_ii_894_8135)">
<path d="M23.5003 0.166687H2.50033C1.21166 0.166687 0.166992 1.21136 0.166992 2.50002V23.5C0.166992 24.7887 1.21166 25.8334 2.50033 25.8334H23.5003C24.789 25.8334 25.8337 24.7887 25.8337 23.5V2.50002C25.8337 1.21136 24.789 0.166687 23.5003 0.166687Z" fill="black" fill-opacity="0.01"/>
</g>
</g>
<mask id="mask1_894_8135" style="mask-type:alpha" maskUnits="userSpaceOnUse" x="0" y="0" width="26" height="26">
<path d="M23.5003 0.166687H2.50033C1.21166 0.166687 0.166992 1.21136 0.166992 2.50002V23.5C0.166992 24.7887 1.21166 25.8334 2.50033 25.8334H23.5003C24.789 25.8334 25.8337 24.7887 25.8337 23.5V2.50002C25.8337 1.21136 24.789 0.166687 23.5003 0.166687Z" fill="white"/>
</mask>
<g mask="url(#mask1_894_8135)">
<g filter="url(#filter1_d_894_8135)">
<path fill-rule="evenodd" clip-rule="evenodd" d="M13.0007 23.1667C18.6156 23.1667 23.1673 18.6149 23.1673 13C23.1673 7.38514 18.6156 2.83337 13.0007 2.83337C7.38575 2.83337 2.83398 7.38514 2.83398 13C2.83398 18.6149 7.38575 23.1667 13.0007 23.1667Z" fill="#F5F5F5"/>
</g>
<path fill-rule="evenodd" clip-rule="evenodd" d="M11.3123 7.8742C9.9618 8.32597 8.81103 9.3141 8.17003 10.5645C7.94643 10.9959 7.78547 11.4536 7.68707 11.9287C7.4426 13.1062 7.61253 14.3625 8.16707 15.4352C8.5278 16.1347 9.04653 16.7585 9.6726 17.2452C10.2659 17.7058 10.9546 18.0497 11.688 18.2392C12.6122 18.4811 13.596 18.4753 14.5262 18.2683C15.3669 18.0789 16.1629 17.6854 16.7979 17.1141C17.4687 16.5107 17.9487 15.7179 18.2021 14.8639C18.4793 13.934 18.5151 12.9401 18.3422 11.984H13.1249V14.1002H16.148C16.0317 14.7764 15.6203 15.3944 15.0389 15.7762C14.6722 16.0181 14.2519 16.1726 13.8166 16.2484C13.3813 16.3213 12.9282 16.33 12.4929 16.2455C12.0487 16.158 11.6283 15.9773 11.2587 15.7237C10.6684 15.3186 10.2182 14.7269 9.98863 14.0594C9.7531 13.3802 9.75013 12.6253 9.98863 11.9491C10.1556 11.471 10.4299 11.0309 10.7936 10.6695C11.2408 10.2206 11.8221 9.89997 12.4512 9.7688C12.9878 9.65804 13.5542 9.67843 14.079 9.83293C14.5261 9.9641 14.9376 10.206 15.2745 10.5208C15.6143 10.1885 15.9542 9.85623 16.2941 9.52397C16.4729 9.34617 16.6608 9.1742 16.8337 8.99057C16.3179 8.5242 15.7097 8.14817 15.0479 7.90917C13.8554 7.47777 12.5138 7.46904 11.3123 7.8742Z" fill="#4C8BF5"/>
<path fill-rule="evenodd" clip-rule="evenodd" d="M23.1676 4.16673C23.904 4.16673 24.501 3.56976 24.501 2.83339C24.501 2.09703 23.904 1.50006 23.1676 1.50006C22.4313 1.50006 21.8343 2.09703 21.8343 2.83339C21.8343 3.56976 22.4313 4.16673 23.1676 4.16673ZM2.83431 4.16673C3.57068 4.16673 4.16764 3.56976 4.16764 2.83339C4.16764 2.09703 3.57068 1.50006 2.83431 1.50006C2.09794 1.50006 1.50098 2.09703 1.50098 2.83339C1.50098 3.56976 2.09794 4.16673 2.83431 4.16673ZM23.1676 24.5001C23.904 24.5001 24.501 23.9031 24.501 23.1667C24.501 22.4304 23.904 21.8334 23.1676 21.8334C22.4313 21.8334 21.8343 22.4304 21.8343 23.1667C21.8343 23.9031 22.4313 24.5001 23.1676 24.5001ZM2.83431 24.5001C3.57068 24.5001 4.16764 23.9031 4.16764 23.1667C4.16764 22.4304 3.57068 21.8334 2.83431 21.8334C2.09794 21.8334 1.50098 22.4304 1.50098 23.1667C1.50098 23.9031 2.09794 24.5001 2.83431 24.5001Z" fill="#A4C4FA"/>
</g>
<defs>
<filter id="filter0_ii_894_8135" x="0.166992" y="-0.458313" width="25.667" height="26.9167" filterUnits="userSpaceOnUse" color-interpolation-filters="sRGB">
<feFlood flood-opacity="0" result="BackgroundImageFix"/>
<feBlend mode="normal" in="SourceGraphic" in2="BackgroundImageFix" result="shape"/>
<feColorMatrix in="SourceAlpha" type="matrix" values="0 0 0 0 0 0 0 0 0 0 0 0 0 0 0 0 0 0 127 0" result="hardAlpha"/>
<feOffset dy="0.625"/>
<feGaussianBlur stdDeviation="1.25"/>
<feComposite in2="hardAlpha" operator="arithmetic" k2="-1" k3="1"/>
<feColorMatrix type="matrix" values="0 0 0 0 0.639216 0 0 0 0 0.768627 0 0 0 0 0.976471 0 0 0 0.5 0"/>
<feBlend mode="normal" in2="shape" result="effect1_innerShadow_894_8135"/>
<feColorMatrix in="SourceAlpha" type="matrix" values="0 0 0 0 0 0 0 0 0 0 0 0 0 0 0 0 0 0 127 0" result="hardAlpha"/>
<feOffset dy="-0.625"/>
<feGaussianBlur stdDeviation="1.25"/>
<feComposite in2="hardAlpha" operator="arithmetic" k2="-1" k3="1"/>
<feColorMatrix type="matrix" values="0 0 0 0 0.639216 0 0 0 0 0.768627 0 0 0 0 0.976471 0 0 0 0.5 0"/>
<feBlend mode="normal" in2="effect1_innerShadow_894_8135" result="effect2_innerShadow_894_8135"/>
</filter>
<filter id="filter1_d_894_8135" x="1.58398" y="1.58337" width="25.333" height="25.3333" filterUnits="userSpaceOnUse" color-interpolation-filters="sRGB">
<feFlood flood-opacity="0" result="BackgroundImageFix"/>
<feColorMatrix in="SourceAlpha" type="matrix" values="0 0 0 0 0 0 0 0 0 0 0 0 0 0 0 0 0 0 127 0" result="hardAlpha"/>
<feOffset dx="1.25" dy="1.25"/>
<feGaussianBlur stdDeviation="1.25"/>
<feColorMatrix type="matrix" values="0 0 0 0 0 0 0 0 0 0 0 0 0 0 0 0 0 0 0.1 0"/>
<feBlend mode="normal" in2="BackgroundImageFix" result="effect1_dropShadow_894_8135"/>
<feBlend mode="normal" in="SourceGraphic" in2="effect1_dropShadow_894_8135" result="shape"/>
</filter>
<linearGradient id="paint0_linear_894_8135" x1="7.00025" y1="21.2901" x2="21.2689" y2="35.7447" gradientUnits="userSpaceOnUse">
<stop stop-color="#3C70C8"/>
<stop offset="1" stop-color="#4889F4" stop-opacity="0.01"/>
</linearGradient>
</defs>
</svg>
