<svg width="36" height="34" viewBox="0 0 36 34" fill="none" xmlns="http://www.w3.org/2000/svg">
<path fill-rule="evenodd" clip-rule="evenodd" d="M28.1769 13.062L35.0458 18.5199L24.9815 25.3709L17.9983 19.1443L11.0151 25.3709L0.950684 18.5199L7.82354 13.0589L0.954619 7.60108L11.019 0.75L18.0022 6.97665L24.9854 0.75L35.0498 7.60108L28.1769 13.062ZM28.1596 13.0593L17.9983 19.1427L7.8409 13.0616L18.0022 6.97824L28.1596 13.0593ZM7.83635 26.571L17.9605 33.25L28.0528 26.571V24.3806L25.0111 26.4675L17.9605 20.2338C17.9605 20.2338 10.8259 26.4675 10.929 26.4675C11.0322 26.4675 7.83635 24.339 7.83635 24.339V26.687V26.571Z" fill="url(#paint0_linear_894_4296)"/>
<defs>
<linearGradient id="paint0_linear_894_4296" x1="2.95886" y1="4.57804" x2="2.95886" y2="33.25" gradientUnits="userSpaceOnUse">
<stop stop-color="#129EF6"/>
<stop offset="1" stop-color="#0180E6"/>
</linearGradient>
</defs>
</svg>
