<svg width="22" height="16" viewBox="0 0 22 16" fill="none" xmlns="http://www.w3.org/2000/svg">
<path fill-rule="evenodd" clip-rule="evenodd" d="M7.66375 12.1982C7.66375 12.1982 8.85995 10.8773 10.8536 10.8773C12.8472 10.8773 14.1954 12.1982 14.1954 12.1982L10.9296 15.7699L7.66375 12.1982ZM5.83847 10.4359C5.83847 10.4359 7.94267 8.32767 10.9295 8.30807C13.9163 8.28827 16.0835 10.4359 16.0835 10.4359L17.9749 8.30787C17.9749 8.30787 14.9369 5.49067 10.9295 5.51027C6.92207 5.53007 3.86827 8.42627 3.86827 8.42627L5.83847 10.4359ZM2.25269 6.47577C2.25269 6.47577 6.16949 3.00817 10.9295 3.00817C15.6895 3.00817 19.6298 6.47577 19.6298 6.47577L21.5212 4.40697C21.5212 4.40697 16.8519 0.210571 10.9217 0.230171C4.99129 0.249971 0.479492 4.46617 0.479492 4.46617L2.25269 6.47577Z" fill="url(#paint0_linear_894_439)"/>
<defs>
<linearGradient id="paint0_linear_894_439" x1="0.479492" y1="0.230111" x2="0.479492" y2="15.7699" gradientUnits="userSpaceOnUse">
<stop stop-color="#19DEFE"/>
<stop offset="1" stop-color="#1E5BEF"/>
</linearGradient>
</defs>
</svg>
