<svg width="30" height="34" viewBox="0 0 30 34" fill="none" xmlns="http://www.w3.org/2000/svg">
<path d="M2.87012 21.6659V22.9932C2.87022 23.2751 2.93841 23.5527 3.0689 23.8025C3.19938 24.0525 3.38827 24.2671 3.6195 24.4283L8.88025 19.1674L7.42177 17.7089C7.38275 17.67 7.33643 17.639 7.28545 17.6179C7.23448 17.5967 7.17983 17.5859 7.12465 17.5859C7.06947 17.5859 7.01484 17.5967 6.96387 17.6179C6.91289 17.639 6.86657 17.67 6.82755 17.7089L2.87012 21.6659Z" fill="url(#paint0_linear_894_9821)"/>
<path d="M7.12384 15.9868C7.3002 15.9864 7.4749 16.0208 7.63782 16.0884C7.80075 16.1559 7.94865 16.2551 8.07297 16.3801L9.86949 18.1766L13.5581 14.488C13.9406 14.1061 14.4592 13.8915 14.9998 13.8915C15.5404 13.8915 16.059 14.1061 16.4415 14.488L21.5703 19.6168L23.1555 18.0317C23.4074 17.7803 23.7486 17.6392 24.1046 17.6392C24.4604 17.6392 24.8018 17.7803 25.0536 18.0317L27.13 20.1097V11.0076C27.13 10.7003 27.0491 10.3983 26.8952 10.1322C26.7415 9.86602 26.5205 9.64501 26.2544 9.49132L15.8752 3.49884C15.6091 3.34514 15.307 3.26422 14.9996 3.26422C14.6922 3.26422 14.3903 3.34514 14.124 3.49884L3.74475 9.49132C3.47858 9.64501 3.25753 9.86602 3.10383 10.1322C2.95013 10.3983 2.8692 10.7003 2.86914 11.0076V19.6849L6.17412 16.3799C6.29854 16.2548 6.44656 16.1556 6.60957 16.0883C6.7726 16.0208 6.94741 15.9862 7.12384 15.9868Z" fill="url(#paint1_linear_894_9821)"/>
<path d="M22.5605 20.6079L26.38 24.4282C26.6113 24.2669 26.8002 24.0523 26.9306 23.8024C27.061 23.5526 27.1291 23.2749 27.1293 22.9931V22.0903L24.4005 19.3616C24.3217 19.2828 24.2148 19.2385 24.1034 19.2385C23.9919 19.2385 23.885 19.2828 23.8062 19.3616L22.5605 20.6079Z" fill="url(#paint2_linear_894_9821)"/>
<path d="M21.5696 21.598L20.5794 20.6079L15.4506 15.4793C15.3308 15.3597 15.1687 15.2927 14.9995 15.2927C14.8304 15.2927 14.6682 15.3597 14.5485 15.4793L10.86 19.1679L9.86962 20.1582L4.86914 25.1581L14.1234 30.5014C14.3896 30.6551 14.6916 30.736 14.999 30.736C15.3064 30.736 15.6085 30.6551 15.8746 30.5014L25.1289 25.1581L21.5696 21.598Z" fill="url(#paint3_linear_894_9821)"/>
<path d="M14.9998 1.65462C15.3431 1.65452 15.6805 1.74487 15.9777 1.91655L27.5734 8.61133C27.8708 8.78302 28.1176 9.02994 28.2892 9.3273C28.4609 9.62466 28.5513 9.96197 28.5513 10.3053V23.6949C28.5513 24.0382 28.4609 24.3754 28.2892 24.6728C28.1176 24.9701 27.8708 25.2171 27.5734 25.3887L15.9777 32.0835C15.6803 32.2552 15.3431 32.3456 14.9997 32.3456C14.6563 32.3456 14.319 32.2552 14.0217 32.0835L2.42604 25.3887C2.12869 25.2171 1.88177 24.9701 1.71011 24.6728C1.53844 24.3754 1.44807 24.0382 1.44808 23.6949V10.3053C1.44807 9.96197 1.53844 9.62466 1.71011 9.3273C1.88179 9.02994 2.12869 8.78302 2.42604 8.61133L14.0217 1.91655C14.319 1.74488 14.6564 1.65454 14.9998 1.65462ZM14.9998 0.206543C14.4023 0.206776 13.8153 0.364054 13.2978 0.662614L1.702 7.35739C1.18517 7.65688 0.755975 8.08675 0.457305 8.60405C0.158636 9.12137 0.000948981 9.70799 0 10.3053V23.6949C0.000979519 24.2923 0.158698 24.8789 0.457392 25.3961C0.756088 25.9135 1.1853 26.3433 1.70215 26.6428L13.2978 33.3376C13.8153 33.6364 14.4023 33.7935 14.9998 33.7935C15.5973 33.7935 16.1843 33.6364 16.7018 33.3376L28.2974 26.6428C28.8143 26.3435 29.2437 25.9135 29.5424 25.3963C29.8412 24.8789 29.9989 24.2923 30 23.6949V10.3053C29.9991 9.70799 29.8413 9.12137 29.5427 8.60406C29.244 8.08676 28.8148 7.65688 28.298 7.35739L16.7024 0.662614C16.1849 0.364074 15.5979 0.206798 15.0004 0.206543H14.9998Z" fill="url(#paint4_linear_894_9821)"/>
<defs>
<linearGradient id="paint0_linear_894_9821" x1="5.87517" y1="3.47667" x2="5.87517" y2="30.8465" gradientUnits="userSpaceOnUse">
<stop offset="0.004" stop-color="#4C99D4"/>
<stop offset="0.5" stop-color="#56C3E6"/>
<stop offset="1" stop-color="#B0D8BC"/>
</linearGradient>
<linearGradient id="paint1_linear_894_9821" x1="14.9996" y1="3.48321" x2="14.9996" y2="30.8572" gradientUnits="userSpaceOnUse">
<stop offset="0.004" stop-color="#4C99D4"/>
<stop offset="0.5" stop-color="#56C3E6"/>
<stop offset="1" stop-color="#B0D8BC"/>
</linearGradient>
<linearGradient id="paint2_linear_894_9821" x1="24.845" y1="3.47738" x2="24.845" y2="30.8479" gradientUnits="userSpaceOnUse">
<stop offset="0.004" stop-color="#4C99D4"/>
<stop offset="0.5" stop-color="#56C3E6"/>
<stop offset="1" stop-color="#B0D8BC"/>
</linearGradient>
<linearGradient id="paint3_linear_894_9821" x1="14.999" y1="3.47849" x2="14.999" y2="30.8441" gradientUnits="userSpaceOnUse">
<stop offset="0.004" stop-color="#4C99D4"/>
<stop offset="0.5" stop-color="#56C3E6"/>
<stop offset="1" stop-color="#B0D8BC"/>
</linearGradient>
<linearGradient id="paint4_linear_894_9821" x1="15" y1="33.7935" x2="15" y2="0.206543" gradientUnits="userSpaceOnUse">
<stop stop-color="#B0D8BC"/>
<stop offset="0.5" stop-color="#56C3E6"/>
<stop offset="0.996" stop-color="#4C99D4"/>
</linearGradient>
</defs>
</svg>
